<?xml version="1.0" encoding="UTF-8" standalone="no"?>
<svg
   version="1.1"
   width="595.27557pt"
   height="841.88977pt"
   id="svg9"
   viewBox="0 0 595.27557 841.88977"
   sodipodi:docname="tazas.cdr"
   xmlns:inkscape="http://www.inkscape.org/namespaces/inkscape"
   xmlns:sodipodi="http://sodipodi.sourceforge.net/DTD/sodipodi-0.dtd"
   xmlns="http://www.w3.org/2000/svg"
   xmlns:svg="http://www.w3.org/2000/svg">
  <defs
     id="defs9" />
  <sodipodi:namedview
     id="namedview9"
     pagecolor="#ffffff"
     bordercolor="#000000"
     borderopacity="0.25"
     inkscape:showpageshadow="2"
     inkscape:pageopacity="0.0"
     inkscape:pagecheckerboard="0"
     inkscape:deskcolor="#d1d1d1"
     inkscape:document-units="pt" />
  <path
     d="M 19.7003,50.8669 V 305.9851 H 586.6294 V 50.8669 Z"
     style="fill:#ffffff;fill-rule:evenodd;stroke:#000000;stroke-width:0.5669;stroke-linecap:butt;stroke-linejoin:miter;stroke-dasharray:none"
     id="path1" />
  <path
     d="m 398.518,170.0558 c 0.3359,-0.1919 0.6599,-0.216 0.972,-0.072 0.3121,0.144 0.54,0.36 0.684,0.648 0.144,0.288 0.18,0.5879 0.108,0.9 -0.072,0.3121 -0.2761,0.5641 -0.612,0.756 -6.7201,3.5521 -12.6479,7.0081 -17.784,10.368 1.4879,3.024 2.7241,6.012 3.708,8.964 0.9839,2.952 1.4879,5.7719 1.512,8.46 0.0241,2.6881 -0.576,5.1599 -1.8,7.416 -1.224,2.2561 -3.3239,4.176 -6.3,5.76 -1.6319,0.864 -3.5399,1.3561 -5.724,1.476 -2.1841,0.1199 -4.248,-0.1559 -6.192,-0.828 -1.944,-0.6721 -3.5881,-1.764 -4.932,-3.276 -1.3439,-1.512 -2.016,-3.492 -2.016,-5.94 0,-1.7759 0.3481,-3.4679 1.044,-5.076 0.6959,-1.6081 1.5959,-3.1561 2.7,-4.644 1.1041,-1.4879 2.34,-2.8919 3.708,-4.212 1.368,-1.3201 2.7479,-2.556 4.14,-3.708 -2.2561,-3.1201 -4.4881,-6.372 -6.696,-9.756 -2.2079,-3.384 -4.0799,-6.9959 -5.616,-10.836 -1.1041,-2.736 -1.764,-5.1721 -1.98,-7.308 -0.216,-2.1359 -0.1681,-3.996 0.144,-5.58 0.3121,-1.584 0.828,-2.9279 1.548,-4.032 0.72,-1.1041 1.4641,-2.016 2.232,-2.736 0.9601,-0.7679 2.124,-1.512 3.492,-2.232 1.368,-0.72 2.7839,-1.224 4.248,-1.512 1.4641,-0.288 2.8919,-0.2761 4.284,0.036 1.3921,0.3121 2.6161,1.116 3.672,2.412 1.008,1.1999 1.4641,2.6161 1.368,4.248 -0.0961,1.6319 -0.54,3.1439 -1.332,4.536 -0.792,1.3921 -1.836,2.5319 -3.132,3.42 -1.296,0.8881 -2.6881,1.188 -4.176,0.9 -0.3841,-0.0961 -0.7679,-0.252 -1.152,-0.468 -0.3841,-0.216 -0.5281,-0.5879 -0.432,-1.116 0.0961,-0.576 0.468,-1.0559 1.116,-1.44 0.648,-0.3841 1.368,-0.8039 2.16,-1.26 0.792,-0.4561 1.5239,-0.9961 2.196,-1.62 0.6721,-0.6239 1.08,-1.4641 1.224,-2.52 0.0961,-0.7679 0.0119,-1.584 -0.252,-2.448 -0.2639,-0.864 -0.7801,-1.4879 -1.548,-1.872 -1.008,-0.4799 -2.052,-0.5281 -3.132,-0.144 -1.08,0.3841 -2.0279,1.008 -2.844,1.872 -0.8161,0.864 -1.4641,1.8601 -1.944,2.988 -0.4799,1.1279 -0.648,2.196 -0.504,3.204 0.3359,1.8241 1.1401,3.924 2.412,6.3 1.2719,2.376 2.7119,4.7999 4.32,7.272 1.6081,2.4721 3.2641,4.86 4.968,7.164 1.7039,2.304 3.132,4.2959 4.284,5.976 2.5441,-1.6801 5.292,-3.384 8.244,-5.112 2.952,-1.728 6.156,-3.5039 9.612,-5.328 z m -22.104,34.704 c 1.1041,-2.3519 1.26,-4.8121 0.468,-7.38 -0.792,-2.5679 -2.052,-5.292 -3.78,-8.172 -1.0559,0.864 -2.0999,1.7881 -3.132,2.772 -1.0321,0.9839 -2.0041,2.0279 -2.916,3.132 -0.9119,1.1041 -1.7039,2.304 -2.376,3.6 -0.6721,1.296 -1.1761,2.664 -1.512,4.104 -0.0961,0.3841 -0.1681,0.936 -0.216,1.656 -0.0479,0.72 0.036,1.4641 0.252,2.232 0.216,0.7679 0.6361,1.4641 1.26,2.088 0.6239,0.6239 1.5599,1.008 2.808,1.152 0.864,0.0961 1.7399,0.0479 2.628,-0.144 0.8881,-0.1919 1.7521,-0.5281 2.592,-1.008 0.8399,-0.4799 1.5959,-1.0559 2.268,-1.728 0.6721,-0.6721 1.224,-1.44 1.656,-2.304 z m 27,-20.232 c 0,2.1121 -0.36,3.7681 -1.08,4.968 -0.72,1.1999 -1.548,1.908 -2.484,2.124 -0.936,0.216 -1.8479,-0.108 -2.736,-0.972 -0.8881,-0.864 -1.5001,-2.3519 -1.836,-4.464 -0.0961,-0.576 -0.1559,-1.62 -0.18,-3.132 -0.0241,-1.512 -0.036,-3.2281 -0.036,-5.148 0,-1.9199 0.036,-3.9359 0.108,-6.048 0.072,-2.1121 0.1321,-4.0561 0.18,-5.832 0.0479,-1.7759 0.0961,-3.2879 0.144,-4.536 0.0479,-1.2481 0.072,-1.944 0.072,-2.088 0,-1.1041 0.3359,-1.872 1.008,-2.304 0.6721,-0.432 1.4879,-0.4561 2.448,-0.072 1.6319,0.576 2.808,1.44 3.528,2.592 0.72,1.152 1.1279,2.5679 1.224,4.248 0,0.9601 -0.0119,2.4239 -0.036,4.392 -0.0241,1.9681 -0.0601,4.032 -0.108,6.192 -0.0479,2.16 -0.0961,4.1879 -0.144,6.084 -0.0479,1.8961 -0.072,3.2281 -0.072,3.996 z m 3.672,-40.608 c -1.6319,1.9199 -3.5399,3.1921 -5.724,3.816 -2.1841,0.6239 -4.2361,0.6721 -6.156,0.144 -0.144,-0.0479 -0.3481,-0.1919 -0.612,-0.432 -0.2639,-0.2401 -0.5641,-0.5159 -0.9,-0.828 -0.3359,-0.3121 -0.648,-0.6361 -0.936,-0.972 -0.288,-0.3359 -0.504,-0.6001 -0.648,-0.792 -0.288,-0.3841 -0.3359,-0.7319 -0.144,-1.044 0.1919,-0.3121 0.4799,-0.576 0.864,-0.792 0.3841,-0.216 0.792,-0.3841 1.224,-0.504 0.432,-0.1199 0.7679,-0.18 1.008,-0.18 1.6801,-0.0961 3.3721,-0.1681 5.076,-0.216 1.7039,-0.0479 3.3959,-0.0961 5.076,-0.144 0.1919,0 0.4079,0.0839 0.648,0.252 0.2401,0.1681 0.468,0.36 0.684,0.576 0.216,0.216 0.3719,0.432 0.468,0.648 0.0961,0.216 0.1199,0.3719 0.072,0.468 z m 33.264,61.776 c 0.576,0 1.008,0.1559 1.296,0.468 0.288,0.3121 0.4439,0.648 0.468,1.008 0.0241,0.36 -0.0601,0.684 -0.252,0.972 -0.1919,0.288 -0.4799,0.432 -0.864,0.432 -0.8161,0.144 -2.124,0.288 -3.924,0.432 -1.8,0.144 -3.6961,0.2761 -5.688,0.396 -1.9919,0.1199 -3.8761,0.216 -5.652,0.288 -1.7759,0.072 -3.0481,0.108 -3.816,0.108 -0.2401,0 -0.4561,0.036 -0.648,0.108 -0.1919,0.072 -0.4079,0.1559 -0.648,0.252 -0.0961,0.3841 -0.18,0.7319 -0.252,1.044 -0.072,0.3121 -0.1321,0.6599 -0.18,1.044 -0.0961,0.576 -0.36,1.0681 -0.792,1.476 -0.432,0.4079 -0.9241,0.7081 -1.476,0.9 -0.5519,0.1919 -1.116,0.252 -1.692,0.18 -0.576,-0.072 -1.08,-0.2999 -1.512,-0.684 -0.3841,-0.3359 -0.6959,-0.7441 -0.936,-1.224 -0.2401,-0.4799 -0.468,-0.9601 -0.684,-1.44 -0.216,-0.4799 -0.468,-0.9119 -0.756,-1.296 -0.288,-0.3841 -0.6721,-0.6721 -1.152,-0.864 -1.2481,-0.0479 -2.3159,-0.0961 -3.204,-0.144 -0.8881,-0.0479 -1.476,-0.1199 -1.764,-0.216 -0.4799,-0.144 -0.7801,-0.3841 -0.9,-0.72 -0.1199,-0.3359 -0.1321,-0.684 -0.036,-1.044 0.0961,-0.36 0.3121,-0.684 0.648,-0.972 0.3359,-0.288 0.72,-0.4561 1.152,-0.504 h 3.96 c 0.2401,-0.0961 0.468,-0.3359 0.684,-0.72 0.216,-0.3841 0.2999,-1.1761 0.252,-2.376 -0.0961,-2.6399 -0.1919,-5.5681 -0.288,-8.784 -0.0961,-3.2159 -0.1919,-6.48 -0.288,-9.792 -0.0961,-3.312 -0.18,-6.552 -0.252,-9.72 -0.072,-3.168 -0.108,-6.0001 -0.108,-8.496 0,-1.2481 0.216,-2.628 0.648,-4.14 0.432,-1.512 0.9839,-2.9401 1.656,-4.284 0.6721,-1.3439 1.404,-2.484 2.196,-3.42 0.792,-0.936 1.5361,-1.4519 2.232,-1.548 0.6959,-0.0961 1.2841,0.3359 1.764,1.296 0.4799,0.9601 0.7679,2.6399 0.864,5.04 0.1919,7.2479 0.2041,14.5321 0.036,21.852 -0.1681,7.3199 -0.252,14.8201 -0.252,22.5 0,0.5281 0.0839,1.0919 0.252,1.692 0.1681,0.6001 0.5879,0.9 1.26,0.9 z m 15.84,-50.4 c 0.9601,0.0961 1.656,0.648 2.088,1.656 0.432,1.008 0.6721,2.304 0.72,3.888 0.0479,1.584 -0.036,3.3361 -0.252,5.256 -0.216,1.9199 -0.4921,3.8401 -0.828,5.76 -0.3359,1.9199 -0.7081,3.7199 -1.116,5.4 -0.4079,1.6801 -0.7319,3.0719 -0.972,4.176 -1.008,3.744 -2.088,7.0081 -3.24,9.792 -0.4799,1.1999 -1.008,2.3641 -1.584,3.492 -0.576,1.1279 -1.188,2.0999 -1.836,2.916 -0.648,0.8161 -1.3079,1.4281 -1.98,1.836 -0.6721,0.4079 -1.3439,0.5159 -2.016,0.324 -0.6239,-0.1919 -1.2841,-0.8161 -1.98,-1.872 -0.6959,-1.0559 -1.3921,-2.412 -2.088,-4.068 -0.6959,-1.656 -1.3921,-3.5759 -2.088,-5.76 -0.6959,-2.1841 -1.3561,-4.4759 -1.98,-6.876 -0.6239,-2.4001 -1.224,-4.8719 -1.8,-7.416 -0.576,-2.5441 -1.1041,-5.0159 -1.584,-7.416 -0.0479,-0.1919 -0.144,-0.576 -0.288,-1.152 -0.144,-0.576 -0.3121,-1.2121 -0.504,-1.908 -0.1919,-0.6959 -0.3841,-1.3799 -0.576,-2.052 -0.1919,-0.6721 -0.36,-1.1999 -0.504,-1.584 -0.1919,-0.432 -0.396,-0.8521 -0.612,-1.26 -0.216,-0.4079 -0.4439,-0.756 -0.684,-1.044 -0.288,-0.3359 -0.5879,-0.576 -0.9,-0.72 -0.3121,-0.144 -0.54,-0.2401 -0.684,-0.288 -0.2401,-0.0479 -0.4799,-0.1559 -0.72,-0.324 -0.2401,-0.1681 -0.288,-0.4921 -0.144,-0.972 0.0479,-0.0961 0.1919,-0.3359 0.432,-0.72 0.2401,-0.3841 0.6959,-0.8161 1.368,-1.296 0.0961,-0.0479 0.2041,-0.0961 0.324,-0.144 0.1199,-0.0479 0.2279,-0.0961 0.324,-0.144 0.3841,-0.1919 0.8399,-0.3359 1.368,-0.432 0.288,-0.0479 0.5641,-0.0839 0.828,-0.108 0.2639,-0.0241 0.54,-0.0119 0.828,0.036 0.6239,0 1.368,0.1199 2.232,0.36 0.8161,0.2401 1.656,0.6721 2.52,1.296 0.864,0.6239 1.6319,1.5599 2.304,2.808 0.4799,0.8161 0.9241,1.908 1.332,3.276 0.4079,1.368 0.792,2.9041 1.152,4.608 0.36,1.7039 0.6959,3.5039 1.008,5.4 0.3121,1.8961 0.5879,3.78 0.828,5.652 0.576,4.4161 1.1041,9.1199 1.584,14.112 0.0479,0.3841 0.1199,0.7679 0.216,1.152 0.0961,0.3359 0.18,0.6959 0.252,1.08 0.072,0.3841 0.1559,0.7679 0.252,1.152 0.1919,0.72 0.4201,1.2841 0.684,1.692 0.2639,0.4079 0.5641,0.3481 0.9,-0.18 0.1919,-0.288 0.5519,-1.0321 1.08,-2.232 0.5281,-1.1999 1.116,-2.7 1.764,-4.5 0.648,-1.8 1.3201,-3.8279 2.016,-6.084 0.6959,-2.2561 1.3201,-4.5839 1.872,-6.984 0.5519,-2.4001 0.972,-4.8121 1.26,-7.236 0.288,-2.4239 0.36,-4.716 0.216,-6.876 -0.0479,-0.4799 -0.0961,-0.9479 -0.144,-1.404 -0.0479,-0.4561 -0.1199,-0.9 -0.216,-1.332 -0.0961,-0.5281 -0.2041,-1.008 -0.324,-1.44 -0.1199,-0.432 -0.2761,-0.864 -0.468,-1.296 z m 18.576,29.232 c 0,2.1121 -0.36,3.7681 -1.08,4.968 -0.72,1.1999 -1.548,1.908 -2.484,2.124 -0.936,0.216 -1.8479,-0.108 -2.736,-0.972 -0.8881,-0.864 -1.5001,-2.3519 -1.836,-4.464 -0.0961,-0.576 -0.1559,-1.62 -0.18,-3.132 -0.0241,-1.512 -0.036,-3.2281 -0.036,-5.148 0,-1.9199 0.036,-3.9359 0.108,-6.048 0.072,-2.1121 0.1321,-4.0561 0.18,-5.832 0.0479,-1.7759 0.0961,-3.2879 0.144,-4.536 0.0479,-1.2481 0.072,-1.944 0.072,-2.088 0,-1.1041 0.3359,-1.872 1.008,-2.304 0.6721,-0.432 1.4879,-0.4561 2.448,-0.072 1.6319,0.576 2.808,1.44 3.528,2.592 0.72,1.152 1.1279,2.5679 1.224,4.248 0,0.9601 -0.0119,2.4239 -0.036,4.392 -0.0241,1.9681 -0.0601,4.032 -0.108,6.192 -0.0479,2.16 -0.0961,4.1879 -0.144,6.084 -0.0479,1.8961 -0.072,3.2281 -0.072,3.996 z m 3.672,-40.608 c -1.6319,1.9199 -3.5399,3.1921 -5.724,3.816 -2.1841,0.6239 -4.2361,0.6721 -6.156,0.144 -0.144,-0.0479 -0.3481,-0.1919 -0.612,-0.432 -0.2639,-0.2401 -0.5641,-0.5159 -0.9,-0.828 -0.3359,-0.3121 -0.648,-0.6361 -0.936,-0.972 -0.288,-0.3359 -0.504,-0.6001 -0.648,-0.792 -0.288,-0.3841 -0.3359,-0.7319 -0.144,-1.044 0.1919,-0.3121 0.4799,-0.576 0.864,-0.792 0.3841,-0.216 0.792,-0.3841 1.224,-0.504 0.432,-0.1199 0.7679,-0.18 1.008,-0.18 1.6801,-0.0961 3.3721,-0.1681 5.076,-0.216 1.7039,-0.0479 3.3959,-0.0961 5.076,-0.144 0.1919,0 0.4079,0.0839 0.648,0.252 0.2401,0.1681 0.468,0.36 0.684,0.576 0.216,0.216 0.3719,0.432 0.468,0.648 0.0961,0.216 0.1199,0.3719 0.072,0.468 z m 31.248,49.896 c 0,1.2481 -0.5159,2.3159 -1.5599,3.204 -1.044,0.8881 -2.2201,1.3799 -3.528,1.476 -0.2401,-0.0479 -0.6242,-0.2761 -1.152,-0.684 -0.54,-0.4079 -0.9961,-1.3561 -1.3802,-2.844 -0.1559,-0.72 -0.2639,-1.5599 -0.3359,-2.52 -0.072,-0.9601 -0.1321,-1.98 -0.18,-3.06 -0.0479,-1.08 -0.0961,-2.1841 -0.144,-3.312 -0.0479,-1.1279 -0.072,-2.2201 -0.072,-3.276 -1.7759,3.0719 -3.5399,5.2679 -5.292,6.588 -1.7521,1.3201 -3.384,1.98 -4.896,1.98 -1.512,0 -2.8919,-0.54 -4.14,-1.62 -1.2481,-1.08 -2.2439,-2.4959 -2.988,-4.248 -0.7441,-1.7521 -1.2121,-3.7199 -1.404,-5.904 -0.1919,-2.1841 -0.0241,-4.356 0.504,-6.516 0.5281,-2.016 1.3201,-3.744 2.376,-5.184 1.0559,-1.44 2.2439,-2.628 3.564,-3.564 1.3201,-0.936 2.6881,-1.6801 4.104,-2.232 1.4159,-0.5519 2.736,-0.9601 3.96,-1.224 1.224,-0.2639 2.268,-0.432 3.132,-0.504 0.864,-0.072 1.4159,-0.108 1.656,-0.108 0.0479,-0.6239 0.0839,-1.152 0.108,-1.584 0.0241,-0.432 0.036,-0.72 0.036,-0.864 0.144,-1.0559 0.6361,-2.0761 1.4519,-3.06 0.828,-0.9839 1.692,-1.692 2.5801,-2.124 0.9,-0.432 1.728,-0.4799 2.4721,-0.144 0.756,0.3359 1.1279,1.2719 1.1279,2.808 z m -7.848,-28.08 c -2.6881,0.288 -4.968,1.044 -6.84,2.268 -1.872,1.224 -3.348,2.6521 -4.428,4.284 -1.08,1.6319 -1.8241,3.348 -2.232,5.148 -0.4079,1.8 -0.5281,3.456 -0.36,4.968 0.1681,1.512 0.612,2.7479 1.332,3.708 0.72,0.9601 1.656,1.4159 2.808,1.368 1.152,-0.0479 2.196,-0.4921 3.132,-1.332 0.936,-0.8399 1.764,-1.8961 2.484,-3.168 0.72,-1.2719 1.332,-2.7119 1.836,-4.32 0.504,-1.6081 0.9241,-3.2159 1.26,-4.824 0.3359,-1.6081 0.5879,-3.1201 0.756,-4.536 0.1681,-1.4159 0.252,-2.6039 0.252,-3.564 z"
     style="fill:#000000;fill-rule:evenodd"
     id="path2" />
  <path
     d="m 94.2106,164.2849 c -0.7595,0.318 -3.0468,-1.2492 -3.4053,1.4527 -0.4464,3.3646 2.1671,4.0307 4.6539,4.8418 1.8324,0.5976 2.7947,0.3546 2.8692,-1.7574 0.0889,-2.4996 -6e-4,-4.7784 -4.1178,-4.5371 z m 119.8926,2.7947 c -0.0667,-3.2634 -1.1954,-4.5054 -3.9639,-4.2307 -2.4462,0.243 -5.4039,-0.5993 -5.2704,3.4563 0.0667,2.1193 -0.2168,4.6589 3.0743,4.089 2.5185,-0.4336 5.7041,-0.2907 6.16,-3.3146 z m -16.6395,4.8052 c 2.8574,0.2463 4.6921,-0.3341 4.3807,-3.6782 -0.2501,-2.747 -0.567,-5.187 -4.2696,-4.4276 -1.957,0.4031 -5.0091,-0.7605 -4.6922,3.2201 0.2446,3.0716 0.8618,5.461 4.5811,4.8857 z m -82.2461,-4.0952 c -1.1941,-5.3755 -6.8359,-1.3076 -10.0126,-3.0116 -1.5972,-0.8567 -2.9494,0.0301 -3.0022,2.5508 -0.1429,6.8899 4.7106,6.3583 9.2299,6.7041 4.2986,0.3292 3.3056,-2.807 3.7849,-6.2433 z m 31.1088,6.5024 c 2.4144,0 3.2788,-0.064 4.1295,0.0123 2.9704,0.2646 4.8617,-0.2402 4.8973,-3.9991 0.0378,-4.0922 -2.0042,-4.4691 -5.2125,-4.07 -1.907,0.2374 -3.8572,0.1034 -5.7814,0.2374 -1.5816,0.1095 -3.7843,-0.5582 -3.8304,2.1059 -0.0334,1.8875 -0.1868,4.2869 1.6756,5.2004 1.6056,0.7871 3.7555,0.4797 4.1219,0.5131 z m 37.1663,-0.0216 c 1.2952,-2.295 6.6157,0.7154 6.6047,-4.9754 -0.006,-3.6191 -1.0231,-5.6633 -5.1593,-5.0917 -3.5192,0.4863 -8.4004,-1.867 -8.3059,4.9624 0.0612,4.4108 3.0688,4.3857 6.8605,5.1047 z m -16.5174,-8.9459 c -4.5421,0.1434 -10.2833,-1.083 -8.3769,6.3106 1.282,4.9741 6.0031,2.6652 9.1942,2.8064 6.955,0.3075 7.1162,-0.4141 5.5261,-7.0689 -1.1953,-5.0157 -4.5309,-1.0324 -6.3434,-2.0481 z m -37.7705,1.1542 c -1.838,0 -3.1273,-0.0868 -4.3998,0.0194 -2.3173,0.1913 -5.3777,-1.1347 -5.7241,3.0483 -0.298,3.6103 1.1219,5.5283 4.6777,6.28 2.955,0.6244 5.8625,0.9757 8.8768,0.5893 5.5562,-0.7133 7.3553,-4.0044 4.2665,-8.501 -2.0698,-3.0133 -5.5323,-0.7111 -7.6971,-1.436 z m 90.9915,-8.6188 c -9.6233,-4.1007 -17.896,-10.0372 -26.9413,-14.5815 -11.18,-5.6179 -22.0545,-5.7808 -33.1245,0.1979 -3.5503,1.9185 -7.398,3.3569 -11.2251,4.6877 -3.5375,1.2314 -6.8766,1.8569 -10.6988,-0.5181 -3.901,-2.4244 -8.3292,-4.6317 -13.0937,-4.9629 -16.3193,-1.1364 -28.6058,8.2414 -42.4879,15.7516 46.5508,9.6419 91.9335,2.1254 137.5713,-0.5747 z m 1.2232,11.6298 c -3.4747,2.4184 -6.7326,5.236 -10.4519,7.1851 -13.8098,7.2352 -28.9872,10.3273 -44.1423,12.8913 -10.4575,1.7685 -21.2623,2.2939 -31.8426,1.256 -13.5797,-1.3332 -25.9412,-6.4652 -36.8205,-14.8072 -2.1044,-1.6134 -4.4531,-2.7214 -7.0467,-2.5635 -1.1086,0.0673 -3.6354,0.0239 -1.9124,3.0133 7.811,13.5545 15.4219,27.4366 30.0512,34.8997 10.2228,5.2159 21.7004,6.6013 33.1074,6.5006 18.2496,-0.1612 35.8119,-2.4655 50.0554,-15.9007 9.5401,-9.0007 15.6333,-19.7399 19.0024,-32.4746 z m 8.4727,-17.1933 c 2.7908,5.236 -1.3733,7.3063 -2.5185,10.4386 -2.2627,6.2026 -4.7979,12.2581 -7.3719,18.3402 -13.0148,30.7678 -36.815,39.872 -67.4789,39.687 -7.5482,-0.0457 -14.8567,-1.1665 -22.2903,-2.4773 -15.5237,-2.7376 -25.4468,-12.4189 -33.8734,-24.4241 -6.7492,-9.6156 -12.0297,-20.1926 -19.3797,-29.4253 -0.382,-0.4803 -0.501,-1.1575 -0.7946,-1.7168 -0.8734,-1.6656 -5.1142,1.1765 -4.059,-2.6951 0.8718,-3.1961 3.9673,-6.3101 6.4646,-6.5602 5.2121,-0.521 8.6767,-3.746 12.3254,-6.2495 12.4394,-8.5349 26.1803,-9.0374 40.3669,-7.8293 0.9908,0.0844 2.0504,0.7005 2.8609,1.3409 8.4016,6.6419 16.8148,4.2842 25.1378,-0.0195 12.6974,-6.5647 25.1061,-6.0515 37.4038,1.0251 7.9668,4.5844 15.9335,9.1482 24.6452,12.3026 3.23,1.1687 6.0766,2.1621 8.5617,-1.7373 z"
     style="fill:#000000;fill-rule:evenodd"
     id="path3" />
  <path
     d="m 338.2603,241.7961 c 13.608,-27.0476 51.8811,-17.7145 75.9361,-13.257 1.0871,0.2015 2.2751,0.4362 3.5354,0.693 32.4096,6.6056 119.3998,29.8812 125.191,-14.7951 l 0.7804,-8.6324 v -8e-4 h 0.004 0.004 c 0.578,6.2725 1.8825,12.5946 -0.9425,18.5765 -16.1461,34.1896 -85.3305,18.4941 -114.738,13.3305 -7.099,-1.2466 -17.4608,-3.5203 -28.508,-5.0921 -20.5679,-2.9262 -43.5098,-3.411 -52.2218,9.712 -0.4941,0.7444 -0.9479,1.5273 -1.3473,2.3613 -0.7997,2.1246 -3.17,3.1983 -5.2946,2.3987 -2.1245,-0.7997 -3.1983,-3.17 -2.3986,-5.2946 z"
     style="fill:#000000;fill-rule:evenodd"
     id="path4" />
  <path
     d="M 19.7003,432.7068 V 687.8249 H 586.6294 V 432.7068 Z"
     style="fill:#ffffff;fill-rule:evenodd;stroke:#000000;stroke-width:0.5669;stroke-linecap:butt;stroke-linejoin:miter;stroke-dasharray:none"
     id="path5" />
  <path
     d="m 107.9666,575.8768 c 1.8892,-6.6738 -3.1682,-6.8367 -7.3057,-8.3511 -4.2991,-1.5731 -4.5536,2.2047 -5.5475,4.0082 -2.2475,4.0788 2.5231,4.8819 4.1793,7.1792 1.7106,2.3728 3.5686,5.6353 6.7052,4.3664 2.5129,-1.0163 1.5513,-4.7598 1.9687,-7.2027 z M 74.7744,532.5573 c 3.7071,17.2649 9.3756,26.1768 17.2273,27.046 2.1941,-13.9046 0.3106,-25.5393 -17.2273,-27.046 z m 20.1932,17.7346 c 0.1516,2.0496 0.3074,3.7486 0.3971,5.4508 0.3118,5.9178 4.9896,10.8227 10.6058,9.6875 5.3096,-1.0728 1.8523,-5.8289 2.2049,-8.9341 0.245,-2.1578 -0.0249,-4.3779 -0.1223,-6.5675 -0.2698,-6.0834 -4.0992,-9.7723 -11.0237,-8.8465 -5.0245,0.6721 -1.0551,5.4051 -2.0396,8.1057 -0.1571,0.4307 -0.0222,0.9666 -0.0222,1.1041 z m 37.9432,44.169 c 0.1598,-2.3671 0.3532,-4.0559 0.3748,-5.7473 0.1948,-15.2006 0.2004,-15.3127 -14.7877,-17.2759 -2.4192,-0.3167 -7.2256,-2.3918 -7.0199,2.1057 0.2296,5.0264 -6.1426,11.3833 2.3671,15.3179 5.8543,2.7062 12.1488,3.59 19.0657,5.5996 z m 1.0399,-28.7812 c -0.6681,-19.1339 -0.7675,-18.8985 -15.5062,-20.9768 -6.5683,-0.9265 -8.812,-0.6025 -7.62,7.2293 2.4096,15.8334 1.8301,15.785 17.3819,18.5396 4.567,0.8095 6.7445,0.0815 5.7443,-4.7921 z m 17.1555,-18.0726 c -4.5689,0 -8.049,0.3927 -11.4,-0.0941 -4.7463,-0.6905 -5.2216,0.8539 -4.4168,5.1442 1.0641,5.6728 -0.9175,13.0656 2.0695,16.9264 3.5462,4.5841 11.4495,0.9398 17.4144,1.989 9.4177,1.6564 11.0671,0.044 10.803,-9.1498 -0.4428,-15.4373 -0.4428,-15.4373 -14.4701,-14.8157 z m 53.861,19.5833 c -9.3878,2.2792 -18.5198,4.8774 -27.991,5.4227 -6.6605,0.3838 -12.1647,1.3014 -10.4174,10.5446 -0.9959,-9.2503 -0.9959,-9.2661 -9.9267,-9.3101 -4.9023,-0.0248 -9.8174,0.2366 -14.7024,-0.0408 -4.1979,-0.2379 -5.8556,1.5552 -5.7939,5.4883 0.0382,2.4373 0.3061,4.9253 -0.0751,7.3046 -1.0404,6.5034 2.6956,7.4101 8.0019,8.0382 10.6999,1.2662 20.2837,-2.6747 30.0082,-5.6653 12.5254,-3.8511 22.353,-11.9479 30.8964,-21.7822 z m 22.8336,-35.6939 c -16.0071,5.0684 -29.3242,11.1282 -43.8929,13.1091 -19.1002,2.5969 -15.4077,0.1997 -15.6018,17.0194 -0.1131,9.8688 2.1299,11.1796 12.1108,9.431 7.1613,-1.2549 11.1689,-4.1597 10.1839,-11.9853 -0.3959,-3.1435 -0.0649,-6.3767 -0.0649,-9.5693 2.3054,3.115 1.6952,6.2781 1.6053,9.4051 -0.283,9.8587 0.5588,10.3391 10.1751,7.1168 3.3426,-1.1199 4.8075,-2.7318 4.6745,-6.2724 -0.1623,-4.3022 0.8628,-8.6039 0.1755,-12.9836 2.3494,4.717 -0.3187,10.2862 2.5969,15.3526 9.0277,-8.2735 11.3382,-19.5893 18.0376,-30.6234 z m -88.944,66.1575 c -13.8384,0.6401 -29.8257,-5.0225 -42.6635,-17.5093 -11.1511,-10.8463 -18.3296,-24.5669 -23.3942,-39.1637 -1.7277,-4.9799 -5.3695,-9.3948 -4.9514,-15.1123 0.0842,-1.1472 -0.7473,-2.5675 0.91,-2.9856 0.7718,-0.1948 2.0255,0.1604 2.6001,0.7273 12.7452,12.5676 29.51,14.5879 45.9769,17.5055 23.7097,4.2011 47.4622,4.2921 70.9358,-0.7845 12.8018,-2.7688 25.9102,-5.3586 37.3609,-12.5034 1.1474,-0.7157 3.2237,-1.3196 4.1216,-0.7706 1.5379,0.9405 1.2859,3.1689 0.7527,4.7216 -2.5191,7.3343 -4.8532,14.6757 -10.1271,20.8304 -4.2138,4.9181 -6.5453,11.2357 -11.6475,15.6576 -10.8838,9.4316 -20.7171,19.7784 -35.6111,23.9776 -9.9599,2.8082 -19.6703,5.258 -34.2632,5.4094 z"
     style="fill:#000000;fill-rule:evenodd"
     id="path6" />
  <g
     id="Layer1000">
    <path
       d="m 410.1372,596.1455 c 0.1562,0.2603 0.3124,0.5208 0.4686,0.781 0.1565,0.2605 0.2605,0.5729 0.3127,0.9371 0,0.4167 -0.2084,0.7552 -0.6251,1.0154 -0.885,0.4167 -1.8612,0.5338 -2.9285,0.3515 -1.0675,-0.1823 -2.0437,-0.4295 -2.9287,-0.7418 -1.5619,-0.6251 -3.0198,-1.497 -4.3736,-2.6164 -1.3535,-1.1194 -2.5903,-2.304 -3.7097,-3.5535 -1.1194,-1.2495 -2.0956,-2.4733 -2.9287,-3.6706 -0.8329,-1.1976 -1.4837,-2.2127 -1.9523,-3.0458 -1.0936,-1.7703 -2.1999,-3.6706 -3.3193,-5.7014 -1.1194,-2.0304 -2.1087,-4.1261 -2.9676,-6.2869 -0.8592,-2.1606 -1.5231,-4.3606 -1.9916,-6.5994 -0.4686,-2.2388 -0.5726,-4.4776 -0.3124,-6.7164 1.9786,-4.0612 3.7227,-8.0702 5.2324,-12.0271 1.5101,-3.9569 2.7077,-8.1482 3.5927,-12.5739 0.1562,-0.6248 0.2474,-1.4448 0.2732,-2.4599 0.0261,-1.0154 -0.0779,-1.9264 -0.3123,-2.7335 -0.2342,-0.807 -0.6509,-1.3408 -1.2496,-1.601 -0.5986,-0.2605 -1.4708,0.078 -2.6163,1.0151 -1.4057,1.2495 -2.5773,2.7726 -3.5144,4.5689 -0.9372,1.7963 -1.8221,3.6836 -2.6552,5.6622 -0.8331,1.9783 -1.7312,3.9438 -2.6944,5.8963 -0.9632,1.9526 -2.1999,3.7358 -3.7097,5.3499 v 43.3445 c -0.2605,1.0934 -0.5337,1.9786 -0.82,2.6553 -0.2863,0.6769 -0.6769,1.1715 -1.1716,1.4839 -0.4946,0.3124 -1.1194,0.4686 -1.8743,0.4686 -0.7551,0 -1.6792,-0.1302 -2.7725,-0.3904 -0.8853,-0.3645 -1.6401,-0.9113 -2.2649,-1.6401 -0.6248,-0.7291 -1.1324,-1.5491 -1.5228,-2.4602 -0.3906,-0.911 -0.703,-1.8743 -0.9374,-2.8896 -0.2341,-1.0154 -0.3773,-2.0174 -0.4294,-3.0067 l -0.1562,-58.1834 c 0,-0.7809 0.0391,-1.7442 0.117,-2.8896 0.0783,-1.1455 0.2863,-2.2258 0.6248,-3.2412 0.3385,-1.0153 0.8722,-1.8612 1.601,-2.5381 0.7291,-0.6769 1.7184,-0.9893 2.9679,-0.9372 1.1976,0.5205 2.1997,1.2496 3.0067,2.1867 0.807,0.9371 1.4709,2.0047 1.9916,3.202 0.5207,1.1976 0.898,2.4732 1.1324,3.8268 0.2342,1.3538 0.3773,2.6555 0.4295,3.905 0.104,1.6662 0.1431,3.3712 0.1171,5.1154 -0.0258,1.7441 -0.0389,3.8659 -0.0389,6.3652 0.0519,-0.1043 0.1041,-0.1692 0.1562,-0.1953 0.0519,-0.0261 0.1041,-0.0652 0.1562,-0.1171 0.8331,-1.8224 1.7181,-3.8401 2.6552,-6.0528 0.9372,-2.2127 1.9916,-4.3866 3.1629,-6.5211 1.1716,-2.1348 2.4863,-4.1264 3.9441,-5.9746 1.4579,-1.8485 3.1499,-3.3712 5.0763,-4.5689 1.3017,-0.7288 2.4993,-1.1063 3.5927,-1.1324 1.0933,-0.0258 2.0826,0.2214 2.9678,0.7421 0.885,0.5207 1.692,1.2495 2.4208,2.1866 0.7291,0.9372 1.3799,1.9786 1.9525,3.1241 v 0.078 c 0.7291,2.1347 1.0284,4.3866 0.8983,6.7555 -0.1301,2.3689 -0.5207,4.7642 -1.1715,7.1852 -0.6509,2.4208 -1.4449,4.8031 -2.382,7.1459 -0.9371,2.3428 -1.8485,4.5558 -2.7334,6.6385 -0.8853,2.1866 -1.8094,4.3214 -2.7726,6.404 -0.9632,2.0826 -1.8612,4.2174 -2.6943,6.404 0.1562,2.0305 0.5726,4.1783 1.2495,6.4432 0.6769,2.2649 1.5879,4.4776 2.7334,6.6384 1.1455,2.1606 2.4863,4.2041 4.0221,6.1305 1.5361,1.9267 3.2151,3.5666 5.0375,4.9204 0.4685,0.3124 1.015,0.6247 1.6401,0.9371 0.6247,0.3124 1.2495,0.6248 1.8742,0.9372 0.6248,0.3123 1.2104,0.6508 1.7572,1.0153 0.5468,0.3646 1.0024,0.781 1.3666,1.2495 z m 29.5994,-19.6806 c 0,1.3535 -0.5598,2.512 -1.6923,3.4753 -1.1324,0.9632 -2.408,1.4969 -3.8268,1.601 -0.2602,-0.0522 -0.6769,-0.2994 -1.2495,-0.7419 -0.5856,-0.4427 -1.0803,-1.4709 -1.4969,-3.0849 -0.1693,-0.781 -0.2863,-1.6923 -0.3646,-2.7335 -0.0779,-1.0414 -0.1431,-2.1478 -0.195,-3.3193 -0.0522,-1.1713 -0.1043,-2.3689 -0.1562,-3.5924 -0.0522,-1.2237 -0.0782,-2.408 -0.0782,-3.5535 -1.9265,3.3321 -3.8398,5.7141 -5.7402,7.1459 -1.9003,1.432 -3.6706,2.1478 -5.3107,2.1478 -1.6401,0 -3.1371,-0.5857 -4.4906,-1.7572 -1.3539,-1.1716 -2.4342,-2.7074 -3.2412,-4.6077 -0.807,-1.9004 -1.3147,-4.0351 -1.5227,-6.4041 -0.2084,-2.3692 -0.0261,-4.725 0.5465,-7.0679 0.5729,-2.1869 1.4318,-4.0612 2.5772,-5.6231 1.1455,-1.5621 2.4341,-2.8508 3.8659,-3.8658 1.4318,-1.0154 2.9157,-1.8224 4.4516,-2.4211 1.536,-0.599 2.9678,-1.0415 4.2956,-1.3278 1.3274,-0.2863 2.4599,-0.4685 3.397,-0.5468 0.9374,-0.0779 1.5361,-0.117 1.7963,-0.117 0.0522,-0.6769 0.0913,-1.2495 0.1174,-1.7181 0.0258,-0.4686 0.0388,-0.781 0.0388,-0.9371 0.1562,-1.1455 0.69,-2.2519 1.5749,-3.3194 0.8983,-1.0673 1.8355,-1.8352 2.7987,-2.3037 0.9762,-0.4689 1.8743,-0.5208 2.6813,-0.1562 0.82,0.3642 1.2237,1.3796 1.2237,3.0458 z m -8.5127,-30.4586 c -2.9157,0.3124 -5.389,1.1325 -7.4194,2.4602 -2.0305,1.3278 -3.6315,2.8766 -4.8031,4.6469 -1.1715,1.7702 -1.9785,3.6314 -2.421,5.5839 -0.4425,1.9525 -0.5729,3.7488 -0.3906,5.389 0.1822,1.6398 0.6638,2.9806 1.4448,4.022 0.7809,1.0412 1.7963,1.5359 3.0458,1.4837 1.2498,-0.0519 2.3822,-0.5335 3.3973,-1.4448 1.0154,-0.9111 1.9134,-2.0566 2.6944,-3.4362 0.7812,-1.3799 1.4448,-2.9418 1.9916,-4.6859 0.5468,-1.7442 1.0023,-3.4883 1.3669,-5.2328 0.3642,-1.7441 0.6377,-3.384 0.8197,-4.9201 0.1823,-1.5358 0.2736,-2.8244 0.2736,-3.8659 z m 47.6402,32.0984 c 0,0.1562 0.0127,0.5077 0.0388,1.0545 0.0261,0.5465 -0.013,1.1194 -0.1171,1.7181 -0.104,0.5987 -0.3124,1.1455 -0.6247,1.6401 -0.3124,0.4947 -0.8071,0.7418 -1.484,0.7418 -1.3535,-0.5204 -2.3167,-1.4966 -2.8896,-2.9284 -0.5726,-1.4321 -0.9111,-3.1632 -1.0154,-5.1937 -0.104,-3.5404 -0.091,-7.0548 0.0391,-10.5434 0.1302,-3.4883 -0.0391,-7.0288 -0.5076,-10.6212 -0.1562,-0.3645 -0.3124,-0.5207 -0.4686,-0.4688 -0.1562,0.0521 -0.3124,0.1823 -0.4686,0.3906 -0.208,0.2083 -0.3645,0.5468 -0.4685,1.0154 -0.5726,2.0304 -1.0282,4.0739 -1.3666,6.1307 -0.3385,2.0566 -0.7682,4.1522 -1.2887,6.2867 -0.8852,3.9572 -1.9133,6.9639 -3.0849,9.0204 -1.1716,2.0568 -2.2779,3.5275 -3.3191,4.4127 -1.2498,1.0412 -2.4993,1.6141 -3.7488,1.7181 -1.1455,-0.0522 -2.1609,-0.3773 -3.0458,-0.9763 -0.8853,-0.5986 -1.6662,-1.3796 -2.3431,-2.3428 -0.6767,-0.9632 -1.2496,-2.0435 -1.7181,-3.2411 -0.4686,-1.1977 -0.8592,-2.4211 -1.1716,-3.6706 -0.7809,-2.9157 -1.2756,-6.2478 -1.4836,-9.9967 -0.4167,-4.4254 -0.599,-8.9421 -0.5468,-13.5501 0.0521,-4.6078 0.104,-9.0723 0.1561,-13.3937 0,-0.8853 0.2863,-1.4318 0.8592,-1.6402 0.8328,-0.2602 1.679,-0.3123 2.5382,-0.1562 0.8591,0.1562 1.6531,0.4686 2.3819,0.9372 0.7291,0.4685 1.3796,1.0803 1.9525,1.8354 0.5726,0.7549 0.9893,1.5749 1.2495,2.4599 0.3124,1.0936 0.5077,2.6164 0.5857,4.5689 0.0782,1.9525 0.0782,4.0351 0,6.2478 -0.078,2.2128 -0.182,4.4385 -0.3124,6.6773 -0.1301,2.2391 -0.2733,4.1655 -0.4295,5.7793 -0.1561,2.6555 -0.1561,5.0244 0,7.107 0.0522,0.8853 0.1432,1.7572 0.2733,2.6164 0.1304,0.8592 0.3124,1.6271 0.5468,2.304 0.2344,0.6766 0.5338,1.2365 0.898,1.679 0.3646,0.4425 0.807,0.6638 1.3278,0.6638 0.729,0 1.4187,-0.4816 2.0695,-1.4448 0.6509,-0.9632 1.2756,-2.1866 1.8746,-3.6706 0.5987,-1.4839 1.1452,-3.1371 1.6398,-4.9592 0.4947,-1.8224 0.9244,-3.5665 1.2887,-5.2327 0.3645,-1.6659 0.6769,-3.176 0.9374,-4.5295 0.2602,-1.3538 0.4686,-2.317 0.6247,-2.8899 0.0519,-0.2602 0.2603,-0.872 0.6248,-1.8352 0.3645,-0.9632 0.885,-1.8742 1.5619,-2.7334 0.6769,-0.8592 1.5361,-1.484 2.5773,-1.8743 1.0414,-0.3906 2.317,-0.1173 3.8267,0.8198 0.5729,0.7291 0.9893,1.6271 1.2495,2.6946 0.2605,1.0672 0.4298,2.2127 0.5077,3.4362 0.0783,1.2237 0.1043,2.4601 0.0783,3.7097 -0.0261,1.2495 -0.0131,2.395 0.0391,3.4364 0,2.0305 0,3.6706 0,4.9201 0,1.2495 0,2.4211 0,3.5144 0,1.0936 0,2.2518 0,3.4755 0,1.2235 0.0518,2.8506 0.1562,4.881 z m 39.6739,11.2462 c 0.6248,0 1.0934,0.1692 1.4057,0.5077 0.3124,0.3384 0.4817,0.703 0.5077,1.0933 0.0261,0.3906 -0.0649,0.7421 -0.2732,1.0545 -0.2084,0.3124 -0.5208,0.4686 -0.9372,0.4686 -0.8852,0.1561 -2.304,0.3123 -4.2565,0.4685 -1.9525,0.1562 -4.009,0.2994 -6.1696,0.4295 -2.1608,0.1304 -4.2043,0.2344 -6.1307,0.3124 -1.9265,0.0782 -3.3064,0.1173 -4.1392,0.1173 -0.2605,0 -0.4946,0.0388 -0.703,0.1171 -0.2083,0.0779 -0.4425,0.1692 -0.703,0.2732 -0.104,0.4167 -0.195,0.794 -0.2732,1.1325 -0.078,0.3384 -0.1432,0.716 -0.1953,1.1324 -0.1041,0.6248 -0.3904,1.1585 -0.8589,1.601 -0.4686,0.4425 -1.0024,0.7679 -1.601,0.9763 -0.599,0.2083 -1.2107,0.2732 -1.8355,0.1953 -0.6247,-0.0782 -1.1715,-0.3254 -1.6401,-0.7418 -0.4164,-0.3646 -0.7549,-0.8071 -1.0151,-1.3278 -0.2605,-0.5207 -0.5077,-1.0414 -0.7421,-1.5619 -0.2341,-0.5207 -0.5077,-0.9893 -0.8201,-1.406 -0.3123,-0.4164 -0.7288,-0.7287 -1.2495,-0.9371 -1.3538,-0.0522 -2.512,-0.104 -3.4753,-0.1562 -0.9632,-0.0521 -1.601,-0.1301 -1.9133,-0.2341 -0.5208,-0.1562 -0.8462,-0.4167 -0.9763,-0.7813 -0.1304,-0.3642 -0.1434,-0.7418 -0.0391,-1.1324 0.104,-0.3903 0.3384,-0.7418 0.7027,-1.0542 0.3645,-0.3124 0.7812,-0.4946 1.2498,-0.5468 h 4.2953 c 0.2603,-0.104 0.5077,-0.3643 0.7419,-0.7809 0.2344,-0.4165 0.3254,-1.2756 0.2735,-2.5773 -0.1043,-2.8636 -0.2083,-6.0395 -0.3124,-9.5278 -0.1043,-3.4886 -0.2083,-7.0291 -0.3124,-10.6214 -0.1043,-3.5927 -0.1953,-7.1071 -0.2735,-10.5435 -0.078,-3.4362 -0.1171,-6.5081 -0.1171,-9.2154 0,-1.3539 0.2345,-2.8508 0.703,-4.4907 0.4686,-1.6401 1.0673,-3.1892 1.7961,-4.6468 0.729,-1.4579 1.523,-2.6946 2.3822,-3.7097 0.8589,-1.0154 1.6659,-1.5752 2.4211,-1.6793 0.7548,-0.104 1.3926,0.3646 1.9133,1.4057 0.5205,1.0415 0.8329,2.8636 0.9372,5.4669 0.208,7.8619 0.2211,15.7629 0.0391,23.7031 -0.1823,7.9398 -0.2735,16.0752 -0.2735,24.4057 0,0.5726 0.0912,1.1846 0.2735,1.8351 0.182,0.6509 0.6378,0.9763 1.3666,0.9763 z"
       style="fill:#000000;fill-rule:evenodd"
       id="path7" />
    <path
       d="m 471.8557,542.8086 c -1.406,0 -2.5642,-0.2214 -3.4756,-0.6639 -0.911,-0.4425 -1.7311,-1.0023 -2.4599,-1.6793 -0.4167,-0.3642 -0.4946,-0.911 -0.2344,-1.6398 0.8853,-1.9267 1.51,-3.8401 1.8743,-5.7404 0.3645,-1.9004 0.3645,-3.6837 0,-5.3496 -0.2081,-0.8852 -0.1951,-1.51 0.0391,-1.8745 0.2344,-0.3646 0.794,-0.6769 1.6792,-0.9372 0.885,-0.2602 1.692,-0.3515 2.4211,-0.2732 0.7288,0.0779 1.4057,0.2732 2.0305,0.5856 0.6247,0.3124 1.2103,0.703 1.7571,1.1716 0.5469,0.4685 1.0543,0.9371 1.5231,1.4057 0.8328,0.8331 1.1452,1.7441 0.9371,2.7334 -0.4167,1.6662 -0.807,3.3582 -1.1715,5.0763 -0.3646,1.7184 -0.9632,3.3843 -1.7963,4.9983 -0.885,1.6141 -1.9265,2.3432 -3.1238,2.187 z"
       style="fill:#000000;fill-rule:evenodd"
       id="path8" />
  </g>
  <path
     d="m 330.0837,626.3393 c 13.608,-27.0476 51.8811,-17.7145 75.9362,-13.257 1.0871,0.2015 2.2751,0.4362 3.5354,0.693 32.4096,6.6056 119.3998,29.8812 125.191,-14.7951 l 0.7803,-8.6324 v -8e-4 h 0.004 0.004 c 0.578,6.2725 1.8825,12.5946 -0.9425,18.5766 -16.1462,34.1895 -85.3305,18.494 -114.738,13.3304 -7.0991,-1.2466 -17.4608,-3.5203 -28.508,-5.0921 -20.5679,-2.9262 -43.5098,-3.4109 -52.2218,9.7121 -0.4941,0.7443 -0.948,1.5273 -1.3474,2.3612 -0.7996,2.1246 -3.1699,3.1983 -5.2945,2.3987 -2.1246,-0.7997 -3.1983,-3.17 -2.3987,-5.2946 z"
     style="fill:#000000;fill-rule:evenodd"
     id="path9" />
</svg>
